<svg width="81" height="81" viewBox="0 0 81 81" fill="none" xmlns="http://www.w3.org/2000/svg">
<rect x="0.5" y="0.625" width="80" height="80" rx="20" fill="#9C7AFF"/>
<path fill-rule="evenodd" clip-rule="evenodd" d="M40.5 58.4028C50.3189 58.4028 58.2778 50.4439 58.2778 40.625C58.2778 30.8061 50.3189 22.8472 40.5 22.8472C30.6811 22.8472 22.7222 30.8061 22.7222 40.625C22.7222 50.4439 30.6811 58.4028 40.5 58.4028ZM40.5 60.625C51.5456 60.625 60.5 51.6706 60.5 40.625C60.5 29.5794 51.5456 20.625 40.5 20.625C29.4544 20.625 20.5 29.5794 20.5 40.625C20.5 51.6706 29.4544 60.625 40.5 60.625Z" fill="white"/>
<path fill-rule="evenodd" clip-rule="evenodd" d="M32.3833 45.0695C34.1111 49.3272 37.2944 51.7361 40.5 51.7361C43.7067 51.7361 46.8889 49.3272 48.6167 45.0695H32.3833ZM40.5 53.9583C36.0133 53.9583 32.1244 50.5717 30.2133 45.625C30.1946 45.5773 30.1761 45.5295 30.1578 45.4817C29.6622 44.1583 30.7222 42.8472 32.1367 42.8472H48.8644C50.2789 42.8472 51.34 44.1583 50.8422 45.4817C50.8243 45.5295 50.8061 45.5773 50.7878 45.625C48.8756 50.5717 44.9867 53.9583 40.5 53.9583Z" fill="white"/>
<path d="M37.5022 38.8939C37.6467 38.4961 37.6033 38.0106 37.4845 37.5683C37.3413 37.0591 37.1121 36.578 36.8067 36.1461C36.1611 35.225 35.0911 34.3795 33.6456 34.3172C32.1489 34.255 31.0311 35.205 30.3422 36.2128C30.0114 36.6979 29.7513 37.2276 29.57 37.7861C29.4111 38.2817 29.3267 38.7883 29.3822 39.1939C29.395 39.2864 29.4309 39.3741 29.4865 39.4491C29.5421 39.524 29.6158 39.5837 29.7006 39.6227C29.7854 39.6617 29.8787 39.6787 29.9718 39.6721C30.0649 39.6655 30.1549 39.6355 30.2333 39.585C30.6778 39.3006 31.1433 38.9106 31.5745 38.5506C31.77 38.3861 31.96 38.2283 32.1356 38.0895C32.76 37.5961 33.2467 37.315 33.6489 37.295C34.0322 37.2761 34.4745 37.495 35.0322 37.9128C35.2322 38.0617 35.4256 38.2195 35.6256 38.3839L35.8422 38.5606C36.1133 38.7795 36.4022 39.0039 36.6933 39.1794C36.7636 39.2218 36.8423 39.2481 36.9239 39.2564C37.0054 39.2647 37.0879 39.2549 37.1652 39.2276C37.2425 39.2003 37.3128 39.1562 37.3711 39.0985C37.4294 39.0408 37.4742 38.9709 37.5022 38.8939V38.8939ZM43.4033 38.8939C43.2589 38.4961 43.3033 38.0106 43.4222 37.5683C43.5467 37.1061 43.7767 36.6095 44.1 36.1461C44.7445 35.225 45.8156 34.3795 47.2611 34.3172C48.7567 34.255 49.8756 35.205 50.5645 36.2128C50.9133 36.7239 51.1733 37.2772 51.3367 37.7861C51.4945 38.2817 51.5789 38.7883 51.5233 39.1939C51.5105 39.2862 51.4746 39.3738 51.419 39.4486C51.3635 39.5234 51.29 39.583 51.2053 39.622C51.1207 39.6609 51.0276 39.6779 50.9346 39.6715C50.8416 39.665 50.7518 39.6353 50.6733 39.585C50.2289 39.3006 49.7622 38.9106 49.3322 38.5506C49.1472 38.3944 48.9602 38.2407 48.7711 38.0895C48.1456 37.5961 47.66 37.315 47.2567 37.295C46.8733 37.2761 46.4311 37.495 45.8745 37.9128C45.6745 38.0617 45.4811 38.2195 45.2811 38.3839L45.0633 38.5606C44.7941 38.7855 44.5101 38.9923 44.2133 39.1794C44.1431 39.222 44.0643 39.2485 43.9826 39.2569C43.9008 39.2653 43.8183 39.2555 43.7408 39.2282C43.6633 39.2009 43.5929 39.1567 43.5345 39.0989C43.4762 39.0411 43.4314 38.9711 43.4033 38.8939V38.8939Z" fill="white"/>
</svg>
