<svg width="81" height="81" viewBox="0 0 81 81" fill="none" xmlns="http://www.w3.org/2000/svg">
<rect x="0.5" y="0.625" width="80" height="80" rx="20" fill="#9C7AFF"/>
<path d="M41.7014 20.625L41.1665 21.1035L21.6723 40.8113L20.5 41.9869L21.6741 43.2173L37.9092 59.451L39.1397 60.625L40.3189 59.451L60.0232 39.9586L60.5 39.422V20.625H41.7014ZM43.1438 24.0426H57.0821V37.9798L39.138 55.8164L25.3056 41.9852L43.1438 24.0426ZM51.9552 27.4603C51.5019 27.4603 51.0673 27.6403 50.7468 27.9608C50.4263 28.2812 50.2462 28.7159 50.2462 29.1691C50.2462 29.6223 50.4263 30.0569 50.7468 30.3774C51.0673 30.6979 51.5019 30.8779 51.9552 30.8779C52.4084 30.8779 52.8431 30.6979 53.1636 30.3774C53.4841 30.0569 53.6641 29.6223 53.6641 29.1691C53.6641 28.7159 53.4841 28.2812 53.1636 27.9608C52.8431 27.6403 52.4084 27.4603 51.9552 27.4603Z" fill="white"/>
</svg>
