<svg width="81" height="81" viewBox="0 0 81 81" fill="none" xmlns="http://www.w3.org/2000/svg">
<rect x="0.5" y="0.625" width="80" height="80" rx="20" fill="#9C7AFF"/>
<path fill-rule="evenodd" clip-rule="evenodd" d="M40.5 20.625C51.528 20.625 60.5 29.597 60.5 40.625C60.5 51.653 51.528 60.625 40.5 60.625C29.472 60.625 20.5 51.653 20.5 40.625C20.5 29.597 29.472 20.625 40.5 20.625ZM40.5 23.625C31.126 23.625 23.5 31.251 23.5 40.625C23.5 49.999 31.126 57.625 40.5 57.625C49.874 57.625 57.5 49.999 57.5 40.625C57.5 31.251 49.874 23.625 40.5 23.625ZM39.8224 30.8158C40.6524 30.8158 41.3224 31.4878 41.3224 32.3158V41.1598L48.1324 45.2198C48.8424 45.6458 49.0764 46.5658 48.6524 47.2778C48.3704 47.7478 47.8724 48.0098 47.3624 48.0098C47.1004 48.0098 46.8364 47.9418 46.5944 47.7998L39.0544 43.3018C38.6024 43.0298 38.3224 42.5398 38.3224 42.0118V32.3158C38.3224 31.4878 38.9944 30.8158 39.8224 30.8158Z" fill="white"/>
</svg>
